<mxfile host="app.diagrams.net" agent="Mozilla/5.0 (Windows NT 10.0; Win64; x64) AppleWebKit/537.36 (KHTML, like Gecko) Chrome/135.0.0.0 Safari/537.36 Edg/135.0.0.0" version="26.2.15">
  <diagram name="Страница — 1" id="YWNsykIyTPRRWd3LgF_e">
    <mxGraphModel dx="938" dy="606" grid="0" gridSize="10" guides="1" tooltips="1" connect="1" arrows="1" fold="1" page="1" pageScale="1" pageWidth="827" pageHeight="1169" math="0" shadow="0">
      <root>
        <mxCell id="0" />
        <mxCell id="1" parent="0" />
        <mxCell id="QS5DZj5KRI7nL1MxhlHA-14" value="" style="shape=table;childLayout=tableLayout;startSize=0;fillColor=none;collapsible=0;recursiveResize=0;expand=0;" vertex="1" parent="1">
          <mxGeometry x="130" y="40" width="500" height="450" as="geometry" />
        </mxCell>
        <mxCell id="QS5DZj5KRI7nL1MxhlHA-15" value="" style="shape=tableRow;horizontal=0;swimlaneHead=0;swimlaneBody=0;top=0;left=0;strokeColor=inherit;bottom=0;right=0;dropTarget=0;fontStyle=0;fillColor=none;points=[[0,0.5],[1,0.5]];portConstraint=eastwest;startSize=0;collapsible=0;recursiveResize=0;expand=0;" vertex="1" parent="QS5DZj5KRI7nL1MxhlHA-14">
          <mxGeometry width="500" height="450" as="geometry" />
        </mxCell>
        <mxCell id="QS5DZj5KRI7nL1MxhlHA-16" value="Player" style="swimlane;swimlaneHead=0;swimlaneBody=0;fontStyle=0;strokeColor=inherit;connectable=0;fillColor=none;startSize=40;collapsible=0;recursiveResize=0;expand=0;" vertex="1" parent="QS5DZj5KRI7nL1MxhlHA-15">
          <mxGeometry width="167" height="450" as="geometry">
            <mxRectangle width="167" height="450" as="alternateBounds" />
          </mxGeometry>
        </mxCell>
        <mxCell id="QS5DZj5KRI7nL1MxhlHA-34" value="" style="edgeStyle=orthogonalEdgeStyle;rounded=0;orthogonalLoop=1;jettySize=auto;html=1;entryX=0.5;entryY=0;entryDx=0;entryDy=0;" edge="1" parent="QS5DZj5KRI7nL1MxhlHA-16" source="QS5DZj5KRI7nL1MxhlHA-19" target="QS5DZj5KRI7nL1MxhlHA-20">
          <mxGeometry relative="1" as="geometry" />
        </mxCell>
        <mxCell id="QS5DZj5KRI7nL1MxhlHA-19" value="&lt;font style=&quot;color: rgb(255, 255, 255); font-size: 10px;&quot;&gt;нач&lt;/font&gt;" style="ellipse;whiteSpace=wrap;html=1;aspect=fixed;fillColor=#000000;" vertex="1" parent="QS5DZj5KRI7nL1MxhlHA-16">
          <mxGeometry x="73.5" y="50" width="20" height="20" as="geometry" />
        </mxCell>
        <mxCell id="QS5DZj5KRI7nL1MxhlHA-24" value="" style="edgeStyle=orthogonalEdgeStyle;rounded=0;orthogonalLoop=1;jettySize=auto;html=1;" edge="1" parent="QS5DZj5KRI7nL1MxhlHA-16" source="QS5DZj5KRI7nL1MxhlHA-20" target="QS5DZj5KRI7nL1MxhlHA-21">
          <mxGeometry relative="1" as="geometry" />
        </mxCell>
        <mxCell id="QS5DZj5KRI7nL1MxhlHA-20" value="Выбрать клетку и тип башни" style="rounded=1;whiteSpace=wrap;html=1;" vertex="1" parent="QS5DZj5KRI7nL1MxhlHA-16">
          <mxGeometry x="23.5" y="90" width="120" height="60" as="geometry" />
        </mxCell>
        <mxCell id="QS5DZj5KRI7nL1MxhlHA-25" value="" style="edgeStyle=orthogonalEdgeStyle;rounded=0;orthogonalLoop=1;jettySize=auto;html=1;" edge="1" parent="QS5DZj5KRI7nL1MxhlHA-16" source="QS5DZj5KRI7nL1MxhlHA-21" target="QS5DZj5KRI7nL1MxhlHA-22">
          <mxGeometry relative="1" as="geometry" />
        </mxCell>
        <mxCell id="QS5DZj5KRI7nL1MxhlHA-21" value="Хватает средств?" style="rhombus;whiteSpace=wrap;html=1;" vertex="1" parent="QS5DZj5KRI7nL1MxhlHA-16">
          <mxGeometry x="20.25" y="170" width="126.5" height="60" as="geometry" />
        </mxCell>
        <mxCell id="QS5DZj5KRI7nL1MxhlHA-22" value="Показать ошибку &quot;недостаточно средств&quot;" style="rounded=1;whiteSpace=wrap;html=1;" vertex="1" parent="QS5DZj5KRI7nL1MxhlHA-16">
          <mxGeometry x="23.5" y="250" width="120" height="60" as="geometry" />
        </mxCell>
        <mxCell id="QS5DZj5KRI7nL1MxhlHA-17" value="UIManager" style="swimlane;swimlaneHead=0;swimlaneBody=0;fontStyle=0;strokeColor=inherit;connectable=0;fillColor=none;startSize=40;collapsible=0;recursiveResize=0;expand=0;" vertex="1" parent="QS5DZj5KRI7nL1MxhlHA-15">
          <mxGeometry x="167" width="166" height="450" as="geometry">
            <mxRectangle width="166" height="450" as="alternateBounds" />
          </mxGeometry>
        </mxCell>
        <mxCell id="QS5DZj5KRI7nL1MxhlHA-26" value="Создать башню(башня)" style="rounded=1;whiteSpace=wrap;html=1;" vertex="1" parent="QS5DZj5KRI7nL1MxhlHA-17">
          <mxGeometry x="23" y="90" width="120" height="60" as="geometry" />
        </mxCell>
        <mxCell id="QS5DZj5KRI7nL1MxhlHA-36" value="" style="edgeStyle=orthogonalEdgeStyle;rounded=0;orthogonalLoop=1;jettySize=auto;html=1;" edge="1" parent="QS5DZj5KRI7nL1MxhlHA-17" source="QS5DZj5KRI7nL1MxhlHA-30" target="QS5DZj5KRI7nL1MxhlHA-35">
          <mxGeometry relative="1" as="geometry" />
        </mxCell>
        <mxCell id="QS5DZj5KRI7nL1MxhlHA-30" value="Обновить информацию" style="whiteSpace=wrap;html=1;rounded=1;" vertex="1" parent="QS5DZj5KRI7nL1MxhlHA-17">
          <mxGeometry x="23" y="250" width="120" height="60" as="geometry" />
        </mxCell>
        <mxCell id="QS5DZj5KRI7nL1MxhlHA-35" value="&lt;font style=&quot;color: rgb(255, 255, 255); font-size: 10px;&quot;&gt;кон&lt;/font&gt;" style="ellipse;whiteSpace=wrap;html=1;aspect=fixed;fillColor=#000000;" vertex="1" parent="QS5DZj5KRI7nL1MxhlHA-17">
          <mxGeometry x="73" y="340" width="20" height="20" as="geometry" />
        </mxCell>
        <mxCell id="QS5DZj5KRI7nL1MxhlHA-18" value="Game/Level" style="swimlane;swimlaneHead=0;swimlaneBody=0;fontStyle=0;strokeColor=inherit;connectable=0;fillColor=none;startSize=40;collapsible=0;recursiveResize=0;expand=0;" vertex="1" parent="QS5DZj5KRI7nL1MxhlHA-15">
          <mxGeometry x="333" width="167" height="450" as="geometry">
            <mxRectangle width="167" height="450" as="alternateBounds" />
          </mxGeometry>
        </mxCell>
        <mxCell id="QS5DZj5KRI7nL1MxhlHA-28" value="Добавить башню" style="whiteSpace=wrap;html=1;rounded=1;" vertex="1" parent="QS5DZj5KRI7nL1MxhlHA-18">
          <mxGeometry x="23.5" y="90" width="120" height="60" as="geometry" />
        </mxCell>
        <mxCell id="QS5DZj5KRI7nL1MxhlHA-27" value="" style="edgeStyle=orthogonalEdgeStyle;rounded=0;orthogonalLoop=1;jettySize=auto;html=1;" edge="1" parent="QS5DZj5KRI7nL1MxhlHA-15" source="QS5DZj5KRI7nL1MxhlHA-21" target="QS5DZj5KRI7nL1MxhlHA-26">
          <mxGeometry relative="1" as="geometry" />
        </mxCell>
        <mxCell id="QS5DZj5KRI7nL1MxhlHA-29" value="" style="edgeStyle=orthogonalEdgeStyle;rounded=0;orthogonalLoop=1;jettySize=auto;html=1;" edge="1" parent="QS5DZj5KRI7nL1MxhlHA-15" source="QS5DZj5KRI7nL1MxhlHA-26" target="QS5DZj5KRI7nL1MxhlHA-28">
          <mxGeometry relative="1" as="geometry" />
        </mxCell>
        <mxCell id="QS5DZj5KRI7nL1MxhlHA-31" value="" style="edgeStyle=orthogonalEdgeStyle;rounded=0;orthogonalLoop=1;jettySize=auto;html=1;" edge="1" parent="QS5DZj5KRI7nL1MxhlHA-15" source="QS5DZj5KRI7nL1MxhlHA-28" target="QS5DZj5KRI7nL1MxhlHA-30">
          <mxGeometry relative="1" as="geometry">
            <Array as="points">
              <mxPoint x="417" y="280" />
            </Array>
          </mxGeometry>
        </mxCell>
      </root>
    </mxGraphModel>
  </diagram>
</mxfile>
